# xmcd
#
# Track frame offsets:
#	150
#	29990
#	46814
#	72845
#	87499
#	102222
#	120897
#	138221
#	148642
#	174020
#	186991
#	194530
#	205170
#	221043
#	232480
#	244901
#	260255
#	274234
#	291017
#
# Disc length: 4224 seconds
# Revision: 0
# Processed by: cddbd v1.5.2PL0 Copyright (c) Steve Scherf et al.
# Submitted via: dBpowerAMP V12.0
#
DISCID=27107e13
DTITLE=Various Artist - Life Goes On: Musicians Against Childhood Cancer, Disc 2
DYEAR=2012
DGENRE=Country
TTITLE0=Tony Rice, Josh Williams, Aaron Ramsey, Aubrey Haynie and Rob Ikes - Manzanita
TTITLE1=Dudley Connell, Randy Barnes and Randy Kohrs - Rollin' and Tumblin'
TTITLE2=Doyle Lawson and Quicksilver - Precious Memories
TTITLE3=Russell Moore and IIIrd Tyme Out - Little John I Am
TTITLE4=Chris Stapleton, Morgan Hayes and Bradley Walker - Tennessee Whiskey
TTITLE5=Sierra Hull and Highway 111 - Smashville
TTITLE6=Sally Connell, Dudley Connell, Adam Steffey, Marshall Wilborn and Ron Stuart - Give My Love to Rose
TTITLE7=Josh Williams and Don Rigsby - Where the Soul Never Dies
TTITLE8=Blue Highway - Nothing But a Whippoorwill
TTITLE9=Marty Raybon and Full Circle - The Water Is So Cold
TTITLE10=Joe Mullins and Aubrey Haynie - The Turkey Buzzard
TTITLE11=Junior Sisk, Josh Williams and Randy Kohrs - He Died a Rounder at 21
TTITLE12=Randy Kohrs - The Likes of Me
TTITLE13=Kenny and Amanda Smith - Shouting Time in Heaven
TTITLE14=Danny Paisley and Southern Grass - At the End of a Long Lonely Day
TTITLE15=James King, Dudley Connell, Russell Moore, Adam Steffey, Marshall Wilborn and Ron Stuart - Memories of Mother
TTITLE16=Larry Stephenson Band - I Should've Called
TTITLE17=Larry Cordle and Michael Cleveland - Old Violin
TTITLE18=Carl Jackson, Ronnie Bowman, Larry Cordle, Jerry Salley, Ricky Wasson, Randy Kohrs, D.A. Adkins, Garnet Bowman, Lynn Butler, Ashley Kohrs, Gary Payne, Dale Pyatt, Clay Hess, Alan Bibey, Jay Weaver, Ron Stuart and Jim VanCleve - Life Goes On
EXTD=
EXTT0=
EXTT1=
EXTT2=
EXTT3=
EXTT4=
EXTT5=
EXTT6=
EXTT7=
EXTT8=
EXTT9=
EXTT10=
EXTT11=
EXTT12=
EXTT13=
EXTT14=
EXTT15=
EXTT16=
EXTT17=
EXTT18=
PLAYORDER=
